<svg width="20" height="20" viewBox="0 0 20 20" fill="none" xmlns="http://www.w3.org/2000/svg">
<g clip-path="url(#clip0_209_145)">
<path d="M16.333 0C18.293 0 19.893 1.537 19.995 3.472L20 3.667V16.333C20 18.293 18.463 19.893 16.528 19.995L16.333 20H3.667C2.72818 20 1.82509 19.64 1.1438 18.9941C0.462517 18.3481 0.0549239 17.4655 0.00500011 16.528L0 16.333V3.667C0 1.707 1.537 0.107 3.472 0.00500011L3.667 0H16.333ZM10 8.5C9.60218 8.5 9.22064 8.65804 8.93934 8.93934C8.65804 9.22064 8.5 9.60218 8.5 10C8.5 10.3978 8.65804 10.7794 8.93934 11.0607C9.22064 11.342 9.60218 11.5 10 11.5C10.3978 11.5 10.7794 11.342 11.0607 11.0607C11.342 10.7794 11.5 10.3978 11.5 10C11.5 9.60218 11.342 9.22064 11.0607 8.93934C10.7794 8.65804 10.3978 8.5 10 8.5Z" fill="black"/>
<path d="M0.128 27.032C0.704 24.1947 1.25867 21.4213 1.792 18.712C1.984 17.56 2.19733 16.3653 2.432 15.128C2.66667 13.8693 2.88 12.632 3.072 11.416C3.28533 10.1787 3.47733 8.99467 3.648 7.864C3.84 6.712 3.98933 5.66667 4.096 4.728C5.312 4.344 6.624 4.06667 8.032 3.896C9.44 3.704 10.8373 3.608 12.224 3.608C13.056 3.608 13.7387 3.704 14.272 3.896C14.8267 4.088 15.2533 4.36533 15.552 4.728C15.872 5.06933 16.096 5.47467 16.224 5.944C16.352 6.41333 16.416 6.936 16.416 7.512C16.416 8.36533 16.2667 9.208 15.968 10.04C15.6693 10.8507 15.264 11.6293 14.752 12.376C14.2613 13.1013 13.6853 13.7733 13.024 14.392C12.384 14.9893 11.6907 15.48 10.944 15.864C11.328 16.7173 11.7333 17.656 12.16 18.68C12.608 19.6827 13.024 20.6427 13.408 21.56C13.8347 22.6267 14.272 23.6933 14.72 24.76L9.76 26.488C9.33333 25.1227 8.94933 23.8427 8.608 22.648C8.45867 22.1573 8.30933 21.656 8.16 21.144C8.01067 20.6107 7.872 20.1093 7.744 19.64C7.616 19.1707 7.50933 18.7547 7.424 18.392C7.33867 18.008 7.28533 17.6987 7.264 17.464L6.848 17.592C6.72 18.2747 6.56 19.0747 6.368 19.992C6.19733 20.9093 6.03733 21.7947 5.888 22.648C5.696 23.6507 5.504 24.664 5.312 25.688L0.128 27.032ZM7.648 13.144C8.05333 13.1013 8.544 12.9307 9.12 12.632C9.71733 12.3333 10.2827 11.9813 10.816 11.576C11.3493 11.1493 11.808 10.712 12.192 10.264C12.576 9.816 12.768 9.42133 12.768 9.08C12.768 8.84533 12.6933 8.664 12.544 8.536C12.3947 8.38667 12.1813 8.28 11.904 8.216C11.648 8.13067 11.36 8.07733 11.04 8.056C10.72 8.03467 10.3893 8.024 10.048 8.024C9.81333 8.024 9.568 8.03467 9.312 8.056C9.07733 8.056 8.864 8.056 8.672 8.056L7.648 13.144Z" fill="white"/>
</g>
<defs>
<clipPath id="clip0_209_145">
<rect width="20" height="20" fill="white"/>
</clipPath>
</defs>
</svg>
