<svg id="visual" viewBox="0 0 900 600" width="900" height="600" xmlns="http://www.w3.org/2000/svg" xmlns:xlink="http://www.w3.org/1999/xlink" version="1.1"><path d="M0 163L82 163L82 85L164 85L164 121L245 121L245 175L327 175L327 193L409 193L409 121L491 121L491 157L573 157L573 175L655 175L655 139L736 139L736 211L818 211L818 223L900 223L900 229L900 0L900 0L818 0L818 0L736 0L736 0L655 0L655 0L573 0L573 0L491 0L491 0L409 0L409 0L327 0L327 0L245 0L245 0L164 0L164 0L82 0L82 0L0 0Z" fill="#000000"></path><path d="M0 295L82 295L82 205L164 205L164 175L245 175L245 253L327 253L327 301L409 301L409 193L491 193L491 199L573 199L573 259L655 259L655 205L736 205L736 289L818 289L818 301L900 301L900 277L900 227L900 221L818 221L818 209L736 209L736 137L655 137L655 173L573 173L573 155L491 155L491 119L409 119L409 191L327 191L327 173L245 173L245 119L164 119L164 83L82 83L82 161L0 161Z" fill="#979797"></path><path d="M0 421L82 421L82 379L164 379L164 421L245 421L245 427L327 427L327 373L409 373L409 433L491 433L491 421L573 421L573 439L655 439L655 463L736 463L736 403L818 403L818 445L900 445L900 403L900 275L900 299L818 299L818 287L736 287L736 203L655 203L655 257L573 257L573 197L491 197L491 191L409 191L409 299L327 299L327 251L245 251L245 173L164 173L164 203L82 203L82 293L0 293Z" fill="#ffffff"></path><path d="M0 463L82 463L82 475L164 475L164 511L245 511L245 469L327 469L327 457L409 457L409 511L491 511L491 463L573 463L573 493L655 493L655 505L736 505L736 451L818 451L818 481L900 481L900 493L900 401L900 443L818 443L818 401L736 401L736 461L655 461L655 437L573 437L573 419L491 419L491 431L409 431L409 371L327 371L327 425L245 425L245 419L164 419L164 377L82 377L82 419L0 419Z" fill="#979797"></path><path d="M0 601L82 601L82 601L164 601L164 601L245 601L245 601L327 601L327 601L409 601L409 601L491 601L491 601L573 601L573 601L655 601L655 601L736 601L736 601L818 601L818 601L900 601L900 601L900 491L900 479L818 479L818 449L736 449L736 503L655 503L655 491L573 491L573 461L491 461L491 509L409 509L409 455L327 455L327 467L245 467L245 509L164 509L164 473L82 473L82 461L0 461Z" fill="#000000"></path></svg>